# xmcd
# 
# Track frame offsets:
#     150
#     20957
#     39000
#     62295
#     79707
#     101610
#     121380
#     143285
#     167792
#     185492
# 
# Disc length: 2812
# 
# Revision: 5
# Processed by: cddbd v1.5.2PL0 Copyright (c) Steve Scherf et al.
# Submitted via: fre:ac v1.0.17
# 
DISCID=750afa0a
DTITLE=Vow Wow - V
DYEAR=1987
DGENRE=Heavy Metal
TTITLE0=Don't Tell Me Lies
TTITLE1=Somewhere In The Night
TTITLE2=The Girl In Red
TTITLE3=Break Out
TTITLE4=Cry No More
TTITLE5=Same Town
TTITLE6=Born To Die
TTITLE7=Waited For The Lifetime
TTITLE8=Don't Leave Me Now
TTITLE9=War Man
EXTD=YEAR: 1987
EXTT0=
EXTT1=
EXTT2=
EXTT3=
EXTT4=
EXTT5=
EXTT6=
EXTT7=
EXTT8=
EXTT9=
PLAYORDER=
